# xmcd
#
# Track frame offsets: 
#        150
#        12975
#        30806
#        44574
#        67233
#        91449
#        104387
#        118660
#        136149
#        153929
#        172809
#        191186
#        210230
#        210533
#        210836
#        211139
#        211442
#        211745
#        212048
#        212351
#        212654
#        212957
#
# Disc length: 3085 seconds
#
# Revision: 1
# Processed by: cddbd v1.5.2PL0 Copyright (c) Steve Scherf et al.
# Submitted via: ExactAudioCopy v0.99pb5
#
DISCID=420c0b16
DTITLE=Kaas - T.A.F.K.A.A.Z
DYEAR=2009
DGENRE=Hip Hop
TTITLE0=Lovemovement Anthem
TTITLE1=Amok Nachtrag
TTITLE2=Strassenrap Ist Sexuell Erregt Dank Kool Savas
TTITLE3=Ueber Sie - An Dich (Mir Vasee)
TTITLE4=Nichtsnutz 09
TTITLE5=Der Beste Tag Meines Lebens Bis Jetz
TTITLE6=Das Grosse Fest
TTITLE7=Maerchenwald
TTITLE8=Sam Cooke Und So
TTITLE9=Haruki
TTITLE10=Fuer Uwe
TTITLE11=Wunderschoene Welt
TTITLE12=z
TTITLE13=u
TTITLE14=b
TTITLE15=o
TTITLE16=n
TTITLE17=u
TTITLE18=s
TTITLE19=zum
TTITLE20=Bonustrack
TTITLE21=Die Geister Der Liebe
EXTD=
EXTT0=
EXTT1=
EXTT2=
EXTT3=
EXTT4=
EXTT5=
EXTT6=
EXTT7=
EXTT8=
EXTT9=
EXTT10=
EXTT11=
EXTT12=
EXTT13=
EXTT14=
EXTT15=
EXTT16=
EXTT17=
EXTT18=
EXTT19=
EXTT20=
EXTT21=
PLAYORDER=
